<svg xmlns="http://www.w3.org/2000/svg" xmlns:xlink="http://www.w3.org/1999/xlink" width="546" zoomAndPan="magnify" viewBox="0 0 409.5 84.749999" height="113" preserveAspectRatio="xMidYMid meet" version="1.0"><defs><g/></defs><path fill="#49b1f2" d="M 125.351562 25.089844 C 121.382812 18.839844 113.109375 18.335938 107.9375 20.105469 C 103.929688 21.484375 101.042969 25.308594 100.539062 25.964844 C 100.035156 25.308594 97.261719 21.558594 93.25 20.191406 C 88.078125 18.421875 79.695312 18.839844 75.726562 25.089844 C 74.152344 27.570312 69.203125 35.59375 79.933594 47.988281 C 79.933594 47.988281 90.089844 59.71875 99.46875 65.390625 C 99.894531 65.640625 100.441406 65.980469 100.484375 65.960938 C 100.527344 65.980469 101.128906 65.652344 101.554688 65.390625 C 110.933594 59.71875 121.144531 47.988281 121.144531 47.988281 C 131.878906 35.59375 126.925781 27.570312 125.351562 25.089844 Z M 125.351562 25.089844 " fill-opacity="1" fill-rule="nonzero"/><path fill="#f2f2f2" d="M 98.824219 54.285156 C 98.453125 54.285156 98.113281 54.054688 97.980469 53.695312 L 91.566406 36.566406 L 89.140625 44.359375 C 89.019531 44.730469 88.667969 45.015625 88.273438 45.015625 L 81.390625 45.015625 C 80.886719 45.015625 80.480469 44.589844 80.480469 44.085938 C 80.480469 43.585938 80.886719 43.160156 81.390625 43.160156 L 87.609375 43.160156 L 90.625 33.507812 C 90.746094 33.136719 91.074219 32.882812 91.46875 32.871094 C 91.859375 32.863281 92.199219 33.101562 92.339844 33.464844 L 98.679688 50.382812 L 102.015625 37.59375 C 102.113281 37.222656 102.429688 36.960938 102.800781 36.929688 C 103.171875 36.894531 103.535156 37.09375 103.699219 37.441406 L 106.355469 43.027344 L 109.273438 31.320312 C 109.371094 30.9375 109.710938 30.652344 110.105469 30.644531 C 110.496094 30.621094 110.867188 30.871094 111 31.242188 L 113.140625 37.332031 L 121.4375 37.355469 C 121.941406 37.355469 122.335938 37.691406 122.335938 38.183594 C 122.335938 38.6875 121.929688 39.015625 121.425781 39.015625 L 112.488281 39.058594 C 112.105469 39.058594 111.765625 38.851562 111.632812 38.492188 L 110.277344 34.65625 L 107.46875 45.890625 C 107.382812 46.261719 107.066406 46.535156 106.683594 46.578125 C 106.300781 46.613281 105.9375 46.414062 105.773438 46.066406 L 103.097656 40.449219 L 99.664062 53.609375 C 99.566406 53.992188 99.226562 54.265625 98.835938 54.285156 C 98.855469 54.285156 98.84375 54.285156 98.824219 54.285156 Z M 98.824219 54.285156 " fill-opacity="1" fill-rule="nonzero"/><path fill="#f2f2f2" d="M 83.246094 43.890625 C 83.246094 44.148438 83.199219 44.398438 83.097656 44.640625 C 83 44.878906 82.859375 45.089844 82.675781 45.273438 C 82.492188 45.457031 82.277344 45.597656 82.039062 45.699219 C 81.800781 45.796875 81.550781 45.847656 81.289062 45.847656 C 81.03125 45.847656 80.78125 45.796875 80.542969 45.699219 C 80.300781 45.597656 80.089844 45.457031 79.90625 45.273438 C 79.722656 45.089844 79.582031 44.878906 79.484375 44.640625 C 79.382812 44.398438 79.335938 44.148438 79.335938 43.890625 C 79.335938 43.632812 79.382812 43.382812 79.484375 43.140625 C 79.582031 42.902344 79.722656 42.691406 79.90625 42.507812 C 80.089844 42.324219 80.300781 42.183594 80.542969 42.082031 C 80.78125 41.984375 81.03125 41.933594 81.289062 41.933594 C 81.550781 41.933594 81.800781 41.984375 82.039062 42.082031 C 82.277344 42.183594 82.492188 42.324219 82.675781 42.507812 C 82.859375 42.691406 83 42.902344 83.097656 43.140625 C 83.199219 43.382812 83.246094 43.632812 83.246094 43.890625 Z M 83.246094 43.890625 " fill-opacity="1" fill-rule="nonzero"/><path fill="#f2f2f2" d="M 124.246094 38.21875 C 124.246094 38.476562 124.199219 38.726562 124.097656 38.964844 C 124 39.207031 123.859375 39.417969 123.675781 39.601562 C 123.492188 39.785156 123.28125 39.925781 123.039062 40.027344 C 122.800781 40.125 122.550781 40.175781 122.292969 40.175781 C 122.03125 40.175781 121.78125 40.125 121.542969 40.027344 C 121.300781 39.925781 121.089844 39.785156 120.90625 39.601562 C 120.722656 39.417969 120.582031 39.207031 120.484375 38.964844 C 120.382812 38.726562 120.335938 38.476562 120.335938 38.21875 C 120.335938 37.957031 120.382812 37.707031 120.484375 37.46875 C 120.582031 37.230469 120.722656 37.019531 120.90625 36.835938 C 121.089844 36.652344 121.300781 36.507812 121.542969 36.410156 C 121.78125 36.3125 122.03125 36.261719 122.292969 36.261719 C 122.550781 36.261719 122.800781 36.3125 123.039062 36.410156 C 123.28125 36.507812 123.492188 36.652344 123.675781 36.835938 C 123.859375 37.019531 124 37.230469 124.097656 37.46875 C 124.199219 37.707031 124.246094 37.957031 124.246094 38.21875 Z M 124.246094 38.21875 " fill-opacity="1" fill-rule="nonzero"/><g fill="#83a603" fill-opacity="1"><g transform="translate(127.011923, 58.80963)"><g><path d="M 45.648438 -20.222656 C 45.980469 -20.347656 46.1875 -20.722656 46.144531 -21.597656 C 46.105469 -23.09375 46.019531 -24.550781 45.980469 -26.046875 C 45.980469 -26.382812 45.9375 -26.714844 45.8125 -27.003906 C 45.523438 -27.546875 44.355469 -27.796875 43.855469 -27.960938 C 43.191406 -28.210938 42.484375 -28.378906 41.777344 -28.585938 C 41.109375 -28.792969 40.402344 -28.878906 39.695312 -29.085938 C 37.574219 -29.585938 35.492188 -30 33.328125 -30.167969 C 32.621094 -30.25 31.914062 -30.210938 31.167969 -30.25 C 30.457031 -30.292969 29.75 -30.417969 29.003906 -30.417969 C 28.296875 -30.417969 27.585938 -30.332031 26.878906 -30.292969 C 21.261719 -30.042969 15.355469 -28.917969 10.402344 -26.171875 C 8.570312 -25.175781 6.78125 -23.71875 5.367188 -22.21875 C 4.867188 -21.679688 4.453125 -21.097656 4.035156 -20.554688 C 2.496094 -18.265625 1.582031 -15.230469 2.207031 -12.398438 C 2.371094 -11.734375 2.664062 -11.070312 2.953125 -10.402344 C 5.367188 -4.992188 10.984375 -2.207031 16.351562 -0.539062 C 17.019531 -0.332031 17.683594 -0.125 18.390625 0.0429688 C 19.097656 0.207031 19.804688 0.332031 20.515625 0.457031 C 24.757812 1.289062 29.003906 1.457031 33.328125 1.082031 C 34.039062 1 34.785156 1.039062 35.492188 0.957031 C 37.449219 0.664062 39.363281 0.207031 41.234375 -0.375 C 42.316406 -0.707031 45.0625 -1.125 45.6875 -2.121094 C 45.8125 -2.289062 45.855469 -2.496094 45.855469 -2.703125 C 45.980469 -4.742188 46.3125 -7.15625 45.9375 -9.152344 C 45.273438 -8.988281 44.691406 -8.320312 44.066406 -7.90625 C 43.484375 -7.488281 42.898438 -7.03125 42.191406 -6.699219 C 37.65625 -4.328125 32.371094 -3.496094 27.296875 -3.785156 C 21.636719 -4.121094 14.8125 -5.617188 11.316406 -10.527344 C 9.488281 -13.066406 9.445312 -16.0625 11.277344 -18.601562 C 16.351562 -25.757812 28.085938 -26.171875 35.785156 -24.632812 C 37.992188 -24.175781 40.238281 -23.46875 42.191406 -22.429688 C 42.859375 -22.054688 44.730469 -20.015625 45.648438 -20.222656 Z M 45.648438 -20.222656 "/></g></g></g><g fill="#83a603" fill-opacity="1"><g transform="translate(174.947053, 58.80963)"><g><path d="M 3.121094 0 C 2.703125 -0.5 3.246094 -1.539062 3.246094 -2.082031 L 3.246094 -4.160156 C 3.246094 -9.945312 3.203125 -15.6875 3.164062 -21.472656 L 3.164062 -25.964844 C 3.164062 -26.628906 3.164062 -27.253906 3.039062 -27.878906 C 2.746094 -29.210938 3.453125 -29.460938 4.703125 -29.253906 C 6.492188 -28.960938 8.238281 -29.085938 10.070312 -29.167969 C 10.402344 -29.167969 10.734375 -29.210938 11.027344 -29.042969 C 11.652344 -28.792969 11.984375 -28.003906 12.441406 -27.546875 C 12.898438 -27.046875 13.398438 -26.589844 13.855469 -26.132812 C 16.933594 -22.886719 20.015625 -19.597656 23.050781 -16.351562 C 25.964844 -13.230469 28.792969 -9.945312 31.914062 -7.03125 C 32.289062 -6.699219 32.664062 -6.367188 32.914062 -5.949219 C 33.164062 -5.535156 33.328125 -4.992188 33.789062 -4.785156 C 34.746094 -4.328125 35.078125 -5.742188 35.535156 -6.242188 C 37.367188 -8.15625 39.320312 -9.902344 41.152344 -11.777344 C 42.777344 -13.441406 44.148438 -15.269531 45.730469 -16.933594 C 46.480469 -17.683594 46.605469 -17.601562 47.3125 -18.351562 C 48.019531 -19.097656 47.933594 -19.222656 48.640625 -20.015625 C 49.390625 -20.761719 49.351562 -20.804688 50.058594 -21.554688 C 50.804688 -22.304688 50.972656 -22.179688 51.679688 -22.925781 C 52.386719 -23.71875 52.304688 -23.800781 53.054688 -24.550781 C 53.761719 -25.300781 53.71875 -25.382812 54.425781 -26.132812 L 55.550781 -27.089844 C 56.050781 -27.503906 56.300781 -28.046875 56.757812 -28.503906 C 57.628906 -29.417969 58.671875 -29.128906 59.835938 -29.085938 C 61.167969 -29.003906 62.539062 -29.085938 63.871094 -29.292969 C 64.078125 -29.292969 64.289062 -29.335938 64.539062 -29.335938 C 65.953125 -29.167969 64.996094 -27.796875 64.996094 -27.046875 C 64.996094 -26.007812 65.035156 -26.007812 65.035156 -24.964844 C 65.035156 -23.925781 65.246094 -23.925781 65.246094 -22.886719 C 65.246094 -16.394531 65.078125 -9.863281 65.078125 -3.371094 C 65.035156 -2.789062 65.035156 -2.207031 65.121094 -1.664062 C 65.203125 -1.082031 65.578125 -0.25 64.953125 0.167969 C 64.496094 0.417969 64.164062 0.0820312 63.746094 0 C 63.289062 -0.125 62.75 -0.0429688 62.289062 0 C 61.417969 0.0820312 60.585938 -0.125 59.753906 -0.125 C 59.003906 -0.125 57.464844 0.75 57.214844 -0.5 C 57.132812 -1.125 57.421875 -1.871094 57.464844 -2.453125 C 57.546875 -3.328125 57.503906 -4.203125 57.464844 -5.078125 C 57.214844 -9.238281 57.378906 -13.441406 57.378906 -17.558594 C 57.378906 -18.101562 57.796875 -18.515625 57.839844 -19.058594 C 57.878906 -19.515625 57.464844 -20.265625 56.882812 -19.847656 C 56.757812 -19.722656 56.671875 -19.597656 56.632812 -19.433594 C 55.21875 -16.726562 52.386719 -14.5625 50.265625 -12.359375 C 47.808594 -9.820312 45.4375 -7.117188 42.984375 -4.535156 C 42.191406 -3.703125 41.359375 -2.953125 40.613281 -2.121094 C 40.070312 -1.539062 39.65625 -0.707031 38.988281 -0.207031 C 38.238281 0.332031 37.574219 0.0429688 36.742188 0 C 34.953125 -0.167969 33.164062 0.0429688 31.375 0.125 C 30.917969 0.167969 30.457031 0.167969 30.042969 0.0429688 C 28.878906 -0.25 28.171875 -1.457031 27.421875 -2.289062 C 24.589844 -5.324219 21.71875 -8.363281 18.808594 -11.402344 C 17.476562 -12.816406 16.101562 -14.230469 14.773438 -15.6875 C 13.691406 -16.894531 12.234375 -17.890625 11.652344 -19.433594 C 11.566406 -19.640625 11.484375 -19.890625 11.277344 -19.972656 C 9.902344 -20.597656 10.734375 -18.015625 10.777344 -17.644531 C 11.109375 -14.855469 10.902344 -12.027344 10.820312 -9.195312 C 10.777344 -7.949219 10.777344 -6.742188 10.859375 -5.492188 C 10.902344 -4.160156 10.570312 -2.828125 10.902344 -1.496094 C 11.234375 -0.125 10.820312 0.457031 9.363281 0.167969 C 8.488281 -0.0429688 7.613281 0.0820312 6.742188 0 C 5.910156 -0.0820312 5.160156 -0.167969 4.367188 0.0820312 C 4.160156 0.167969 3.953125 0.25 3.746094 0.25 C 3.453125 0.207031 3.246094 0.125 3.121094 0 Z M 3.121094 0 "/></g></g></g><g fill="#83a603" fill-opacity="1"><g transform="translate(243.188044, 58.80963)"><g><path d="M 4.160156 0 C 4.035156 -0.207031 3.996094 -0.457031 3.953125 -0.664062 C 3.703125 -2.289062 4.160156 -3.828125 4.160156 -5.449219 C 4.203125 -7.90625 4.203125 -10.359375 4.203125 -12.859375 C 4.203125 -16.394531 4.203125 -19.929688 4.160156 -23.46875 C 4.160156 -24.964844 3.121094 -29.210938 5.285156 -29.210938 L 45.105469 -29.085938 C 45.648438 -29.085938 46.230469 -29.042969 46.5625 -28.628906 C 46.769531 -28.335938 46.8125 -27.960938 46.8125 -27.585938 L 46.9375 -24.632812 C 46.9375 -24.132812 46.9375 -23.550781 46.519531 -23.21875 C 45.769531 -22.59375 44.605469 -22.84375 43.734375 -22.925781 C 42.527344 -23.011719 41.277344 -22.96875 40.027344 -22.96875 C 37.074219 -23.011719 34.078125 -23.011719 31.125 -23.050781 C 25.214844 -23.09375 19.347656 -23.09375 13.480469 -23.136719 C 10.902344 -23.136719 11.652344 -20.390625 11.609375 -18.433594 C 11.566406 -17.808594 11.859375 -17.058594 12.484375 -16.933594 C 13.398438 -16.726562 15.1875 -17.101562 16.269531 -17.101562 C 21.761719 -17.101562 27.253906 -17.144531 32.746094 -17.144531 C 35.492188 -17.183594 38.238281 -17.183594 40.984375 -17.226562 C 42.566406 -17.226562 47.1875 -18.265625 46.894531 -15.605469 L 46.519531 -12.148438 C 46.519531 -11.941406 46.480469 -11.734375 46.355469 -11.609375 C 46.1875 -11.441406 45.9375 -11.441406 45.730469 -11.441406 C 35.910156 -11.402344 26.046875 -11.402344 16.269531 -11.402344 C 15.269531 -11.402344 14.4375 -11.359375 13.480469 -11.652344 C 12.859375 -11.816406 12.066406 -11.859375 11.734375 -11.316406 C 11.234375 -10.402344 11.484375 -9.113281 11.609375 -8.15625 C 11.734375 -7.074219 11.609375 -5.992188 12.984375 -5.992188 C 23.71875 -6.035156 34.453125 -6.074219 45.1875 -6.160156 C 47.3125 -6.160156 46.8125 -5.367188 46.8125 -3.828125 C 46.769531 -2.828125 47.476562 -1.207031 46.894531 -0.292969 C 46.269531 0.789062 45.4375 -0.0429688 44.523438 -0.0429688 C 43.484375 -0.0429688 43.484375 -0.0820312 42.402344 -0.0820312 C 30.832031 -0.0820312 19.265625 0.207031 7.699219 -0.0429688 C 7.117188 -0.0820312 6.492188 -0.0820312 5.910156 0.0820312 C 5.367188 0.207031 4.660156 0.5 4.246094 0.0820312 Z M 4.160156 0 "/></g></g></g><g fill="#83a603" fill-opacity="1"><g transform="translate(293.994286, 58.80963)"><g><path d="M 4.160156 0 C 4.035156 -0.207031 3.996094 -0.457031 3.953125 -0.664062 C 3.703125 -2.289062 4.160156 -3.828125 4.160156 -5.449219 C 4.203125 -7.90625 4.203125 -10.359375 4.203125 -12.859375 C 4.203125 -16.394531 4.203125 -19.929688 4.160156 -23.46875 C 4.160156 -24.964844 3.121094 -29.210938 5.285156 -29.210938 L 45.105469 -29.085938 C 45.648438 -29.085938 46.230469 -29.042969 46.5625 -28.628906 C 46.769531 -28.335938 46.8125 -27.960938 46.8125 -27.585938 L 46.9375 -24.632812 C 46.9375 -24.132812 46.9375 -23.550781 46.519531 -23.21875 C 45.769531 -22.59375 44.605469 -22.84375 43.734375 -22.925781 C 42.527344 -23.011719 41.277344 -22.96875 40.027344 -22.96875 C 37.074219 -23.011719 34.078125 -23.011719 31.125 -23.050781 C 25.214844 -23.09375 19.347656 -23.09375 13.480469 -23.136719 C 10.902344 -23.136719 11.652344 -20.390625 11.609375 -18.433594 C 11.566406 -17.808594 11.859375 -17.058594 12.484375 -16.933594 C 13.398438 -16.726562 15.1875 -17.101562 16.269531 -17.101562 C 21.761719 -17.101562 27.253906 -17.144531 32.746094 -17.144531 C 35.492188 -17.183594 38.238281 -17.183594 40.984375 -17.226562 C 42.566406 -17.226562 47.1875 -18.265625 46.894531 -15.605469 L 46.519531 -12.148438 C 46.519531 -11.941406 46.480469 -11.734375 46.355469 -11.609375 C 46.1875 -11.441406 45.9375 -11.441406 45.730469 -11.441406 C 35.910156 -11.402344 26.046875 -11.402344 16.269531 -11.402344 C 15.269531 -11.402344 14.4375 -11.359375 13.480469 -11.652344 C 12.859375 -11.816406 12.066406 -11.859375 11.734375 -11.316406 C 11.234375 -10.402344 11.484375 -9.113281 11.609375 -8.15625 C 11.734375 -7.074219 11.609375 -5.992188 12.984375 -5.992188 C 23.71875 -6.035156 34.453125 -6.074219 45.1875 -6.160156 C 47.3125 -6.160156 46.8125 -5.367188 46.8125 -3.828125 C 46.769531 -2.828125 47.476562 -1.207031 46.894531 -0.292969 C 46.269531 0.789062 45.4375 -0.0429688 44.523438 -0.0429688 C 43.484375 -0.0429688 43.484375 -0.0820312 42.402344 -0.0820312 C 30.832031 -0.0820312 19.265625 0.207031 7.699219 -0.0429688 C 7.117188 -0.0820312 6.492188 -0.0820312 5.910156 0.0820312 C 5.367188 0.207031 4.660156 0.5 4.246094 0.0820312 Z M 4.160156 0 "/></g></g></g><g fill="#83a603" fill-opacity="1"><g transform="translate(344.800528, 58.80963)"><g><path d="M 2.371094 -23.34375 C 2.789062 -22.96875 3.453125 -22.925781 4.035156 -22.925781 C 8.570312 -23.011719 13.066406 -23.09375 17.558594 -23.136719 C 17.851562 -23.136719 18.101562 -23.136719 18.351562 -23.050781 C 18.972656 -22.71875 19.058594 -21.886719 19.058594 -21.222656 C 18.890625 -14.8125 18.765625 -8.445312 18.640625 -2.039062 C 18.640625 -1.621094 18.640625 -1.164062 18.808594 -0.789062 C 19.222656 -0.125 20.140625 0.0429688 20.929688 0.0429688 C 22.59375 0.125 24.257812 0.0820312 25.921875 -0.125 C 26.132812 -0.125 26.339844 -0.167969 26.464844 -0.292969 C 26.628906 -0.457031 26.628906 -0.707031 26.628906 -0.914062 C 26.546875 -7.65625 26.464844 -14.398438 26.421875 -21.136719 C 26.421875 -21.636719 26.421875 -22.179688 26.714844 -22.554688 C 27.128906 -23.136719 27.960938 -23.175781 28.667969 -23.175781 C 33.664062 -23.09375 38.613281 -23.050781 43.609375 -22.96875 C 43.855469 -22.96875 44.191406 -22.96875 44.398438 -23.175781 C 44.648438 -23.386719 44.648438 -23.757812 44.648438 -24.09375 L 44.648438 -28.417969 C 44.648438 -28.628906 44.648438 -28.792969 44.523438 -28.917969 C 44.355469 -29.085938 44.148438 -29.085938 43.980469 -29.085938 C 30.332031 -29.128906 16.726562 -29.167969 3.121094 -29.167969 C 2.828125 -29.167969 2.539062 -29.167969 2.332031 -28.960938 C 2.207031 -28.792969 2.164062 -28.542969 2.164062 -28.335938 C 2.121094 -27.089844 2.082031 -25.839844 1.996094 -24.589844 C 1.996094 -24.300781 1.996094 -23.96875 2.121094 -23.675781 C 2.207031 -23.550781 2.246094 -23.425781 2.371094 -23.34375 Z M 2.371094 -23.34375 "/></g></g></g><g fill="#83a603" fill-opacity="1"><g transform="translate(17.552206, 58.80963)"><g><path d="M 3.996094 0.0429688 C 3.328125 -0.539062 4.121094 -1.664062 4.203125 -2.414062 C 4.285156 -3.203125 3.996094 -3.953125 3.996094 -4.785156 C 3.996094 -6.117188 4.035156 -7.449219 4.035156 -8.738281 C 3.996094 -11.359375 3.953125 -14.023438 3.953125 -16.644531 L 3.953125 -18.726562 C 3.953125 -21.097656 3.910156 -23.425781 3.910156 -25.796875 C 3.871094 -26.921875 3.578125 -28.253906 4.617188 -29.003906 C 6.074219 -30.085938 8.695312 -29.167969 10.359375 -29.167969 C 17.851562 -29.167969 25.382812 -29.625 32.871094 -29.003906 C 38.53125 -28.542969 44.605469 -27.171875 49.265625 -23.800781 C 49.847656 -23.34375 50.472656 -23.011719 50.972656 -22.511719 C 54.21875 -19.347656 55.007812 -13.980469 52.804688 -9.988281 C 50.597656 -5.949219 46.144531 -3.453125 41.902344 -2.039062 C 41.234375 -1.832031 40.527344 -1.664062 39.863281 -1.496094 C 39.15625 -1.289062 38.488281 -1.207031 37.78125 -1.082031 C 27.296875 1.125 16.0625 -0.625 5.410156 0.292969 C 5.078125 0.292969 4.703125 0.332031 4.367188 0.207031 C 4.203125 0.167969 4.121094 0.0820312 3.996094 0.0429688 Z M 11.777344 -5.449219 C 12.066406 -5.160156 12.609375 -5.160156 13.023438 -5.203125 C 22.054688 -5.867188 31.457031 -4.285156 40.152344 -7.613281 C 43.898438 -9.03125 47.476562 -12.773438 45.9375 -17.058594 C 45.730469 -17.726562 45.355469 -18.308594 44.898438 -18.847656 C 43.523438 -20.515625 41.734375 -21.511719 39.695312 -22.179688 C 33.703125 -24.132812 26.714844 -23.757812 20.515625 -23.757812 L 13.148438 -23.757812 C 11.027344 -23.757812 11.859375 -23.09375 11.859375 -21.636719 C 11.859375 -20.640625 11.691406 -20.640625 11.691406 -19.640625 C 11.691406 -18.601562 11.777344 -18.601562 11.777344 -17.601562 C 11.777344 -16.601562 11.777344 -16.601562 11.777344 -15.5625 L 11.777344 -8.238281 C 11.777344 -7.53125 11.234375 -6.035156 11.734375 -5.492188 C 11.734375 -5.449219 11.777344 -5.449219 11.777344 -5.449219 Z M 11.777344 -5.449219 "/></g></g></g></svg>