<svg xmlns="http://www.w3.org/2000/svg" xmlns:xlink="http://www.w3.org/1999/xlink" width="500" zoomAndPan="magnify" viewBox="0 0 375 374.999991" height="500" preserveAspectRatio="xMidYMid meet" version="1.0"><defs><g/><clipPath id="8d877b23ba"><path d="M 80 56 L 164 56 L 164 291 L 80 291 Z M 80 56 " clip-rule="nonzero"/></clipPath><clipPath id="17eb059691"><path d="M 137.730469 38.75 L 269.378906 176.875 L 131.957031 307.855469 L 0.308594 169.730469 Z M 137.730469 38.75 " clip-rule="nonzero"/></clipPath><clipPath id="dce2959094"><path d="M 127.535156 28.050781 L 269.257812 176.75 L 120.5625 318.472656 L -21.164062 169.777344 Z M 127.535156 28.050781 " clip-rule="nonzero"/></clipPath><clipPath id="3c2d71e65d"><path d="M 128.90625 76.09375 L 323.613281 76.09375 L 323.613281 270.800781 L 128.90625 270.800781 Z M 128.90625 76.09375 " clip-rule="nonzero"/></clipPath></defs><g clip-path="url(#8d877b23ba)"><g clip-path="url(#17eb059691)"><g clip-path="url(#dce2959094)"><path fill="#49b1f2" d="M 146.816406 226.941406 C 145.929688 223.171875 143.066406 220.230469 139.347656 219.1875 L 120.484375 213.925781 C 116.257812 212.746094 113.203125 209.160156 112.773438 204.800781 C 112.03125 197.261719 111.078125 184.890625 111.359375 173.066406 C 111.644531 161.242188 113.191406 148.929688 114.296875 141.4375 C 114.933594 137.101562 118.15625 133.664062 122.433594 132.691406 L 141.527344 128.339844 C 145.300781 127.480469 148.304688 124.640625 149.371094 120.917969 L 162.867188 73.953125 C 164.167969 69.410156 162.339844 64.582031 158.355469 62.035156 C 154.488281 59.550781 148.570312 57.179688 139.972656 56.980469 C 113.070312 56.332031 82.863281 71.160156 80.433594 172.335938 C 78.003906 273.507812 107.453125 289.765625 134.367188 290.414062 C 142.984375 290.621094 149.007812 288.527344 153 286.230469 C 157.089844 283.867188 159.144531 279.183594 158.0625 274.589844 C 155.351562 263.132812 149.519531 238.40625 146.816406 226.941406 Z M 146.816406 226.941406 " fill-opacity="1" fill-rule="nonzero"/></g></g></g><g clip-path="url(#3c2d71e65d)"><path fill="#d5e5f2" d="M 315.699219 141.992188 L 257.710938 141.992188 L 257.710938 84.007812 C 257.710938 83.480469 257.660156 82.960938 257.558594 82.445312 C 257.457031 81.925781 257.304688 81.425781 257.101562 80.9375 C 256.898438 80.453125 256.652344 79.988281 256.359375 79.550781 C 256.066406 79.113281 255.734375 78.707031 255.363281 78.335938 C 254.988281 77.960938 254.585938 77.628906 254.144531 77.335938 C 253.707031 77.042969 253.246094 76.796875 252.757812 76.597656 C 252.273438 76.394531 251.769531 76.242188 251.253906 76.140625 C 250.738281 76.035156 250.214844 75.984375 249.6875 75.984375 L 202.832031 75.984375 C 202.304688 75.984375 201.78125 76.035156 201.265625 76.140625 C 200.746094 76.242188 200.246094 76.394531 199.757812 76.597656 C 199.273438 76.796875 198.808594 77.042969 198.371094 77.335938 C 197.933594 77.628906 197.527344 77.960938 197.15625 78.335938 C 196.785156 78.707031 196.453125 79.113281 196.160156 79.550781 C 195.867188 79.988281 195.617188 80.453125 195.417969 80.9375 C 195.214844 81.425781 195.0625 81.925781 194.960938 82.445312 C 194.859375 82.960938 194.804688 83.480469 194.804688 84.007812 L 194.804688 141.992188 L 136.820312 141.992188 C 136.292969 141.992188 135.773438 142.046875 135.257812 142.148438 C 134.738281 142.25 134.238281 142.402344 133.75 142.605469 C 133.265625 142.804688 132.800781 143.054688 132.363281 143.347656 C 131.925781 143.640625 131.519531 143.972656 131.148438 144.34375 C 130.773438 144.714844 130.441406 145.121094 130.148438 145.558594 C 129.855469 145.996094 129.609375 146.460938 129.410156 146.945312 C 129.207031 147.433594 129.054688 147.933594 128.953125 148.453125 C 128.847656 148.96875 128.796875 149.492188 128.796875 150.019531 L 128.796875 196.875 C 128.796875 197.402344 128.847656 197.925781 128.953125 198.441406 C 129.054688 198.957031 129.207031 199.460938 129.410156 199.945312 C 129.609375 200.433594 129.855469 200.894531 130.148438 201.335938 C 130.441406 201.773438 130.773438 202.175781 131.148438 202.550781 C 131.519531 202.921875 131.925781 203.253906 132.363281 203.546875 C 132.800781 203.839844 133.265625 204.085938 133.75 204.289062 C 134.238281 204.492188 134.738281 204.644531 135.257812 204.746094 C 135.773438 204.847656 136.292969 204.898438 136.820312 204.898438 L 194.804688 204.898438 L 194.804688 262.886719 C 194.804688 263.410156 194.859375 263.933594 194.960938 264.449219 C 195.0625 264.96875 195.214844 265.46875 195.417969 265.957031 C 195.617188 266.441406 195.867188 266.90625 196.160156 267.34375 C 196.453125 267.78125 196.785156 268.1875 197.15625 268.558594 C 197.527344 268.929688 197.933594 269.265625 198.371094 269.554688 C 198.808594 269.847656 199.273438 270.097656 199.757812 270.296875 C 200.246094 270.5 200.746094 270.652344 201.265625 270.753906 C 201.78125 270.855469 202.304688 270.910156 202.832031 270.910156 L 249.6875 270.910156 C 250.214844 270.910156 250.738281 270.855469 251.253906 270.753906 C 251.769531 270.652344 252.273438 270.5 252.757812 270.296875 C 253.246094 270.097656 253.707031 269.847656 254.148438 269.554688 C 254.585938 269.265625 254.988281 268.929688 255.363281 268.558594 C 255.734375 268.1875 256.066406 267.78125 256.359375 267.34375 C 256.652344 266.90625 256.898438 266.441406 257.101562 265.957031 C 257.304688 265.46875 257.457031 264.96875 257.558594 264.449219 C 257.660156 263.933594 257.710938 263.410156 257.710938 262.886719 L 257.710938 204.898438 L 315.699219 204.898438 C 316.222656 204.898438 316.746094 204.847656 317.261719 204.746094 C 317.78125 204.644531 318.28125 204.492188 318.769531 204.289062 C 319.253906 204.085938 319.71875 203.839844 320.15625 203.546875 C 320.59375 203.253906 321 202.921875 321.371094 202.550781 C 321.742188 202.175781 322.078125 201.773438 322.367188 201.335938 C 322.660156 200.894531 322.910156 200.433594 323.109375 199.945312 C 323.3125 199.460938 323.464844 198.957031 323.566406 198.441406 C 323.667969 197.925781 323.722656 197.402344 323.722656 196.875 L 323.722656 150.019531 C 323.722656 149.492188 323.667969 148.96875 323.566406 148.453125 C 323.464844 147.933594 323.3125 147.433594 323.109375 146.945312 C 322.910156 146.460938 322.660156 145.996094 322.367188 145.558594 C 322.078125 145.121094 321.742188 144.714844 321.371094 144.34375 C 321 143.972656 320.59375 143.640625 320.15625 143.347656 C 319.71875 143.054688 319.253906 142.804688 318.769531 142.605469 C 318.28125 142.402344 317.78125 142.25 317.261719 142.148438 C 316.746094 142.046875 316.222656 141.992188 315.699219 141.992188 Z M 315.699219 141.992188 " fill-opacity="1" fill-rule="nonzero"/><path fill="#83a603" d="M 315.699219 141.992188 L 257.710938 141.992188 L 257.710938 84.007812 C 257.710938 83.480469 257.660156 82.960938 257.558594 82.445312 C 257.457031 81.925781 257.304688 81.425781 257.101562 80.9375 C 256.898438 80.453125 256.652344 79.988281 256.359375 79.550781 C 256.066406 79.113281 255.734375 78.707031 255.363281 78.335938 C 254.988281 77.960938 254.585938 77.628906 254.144531 77.335938 C 253.707031 77.042969 253.246094 76.796875 252.757812 76.597656 C 252.273438 76.394531 251.769531 76.242188 251.253906 76.140625 C 250.738281 76.035156 250.214844 75.984375 249.6875 75.984375 L 202.832031 75.984375 C 202.304688 75.984375 201.78125 76.035156 201.265625 76.140625 C 200.746094 76.242188 200.246094 76.394531 199.757812 76.597656 C 199.273438 76.796875 198.808594 77.042969 198.371094 77.335938 C 197.933594 77.628906 197.527344 77.960938 197.15625 78.335938 C 196.785156 78.707031 196.453125 79.113281 196.160156 79.550781 C 195.867188 79.988281 195.617188 80.453125 195.417969 80.9375 C 195.214844 81.425781 195.0625 81.925781 194.960938 82.445312 C 194.859375 82.960938 194.804688 83.480469 194.804688 84.007812 L 194.804688 141.992188 L 136.820312 141.992188 C 136.292969 141.992188 135.773438 142.046875 135.257812 142.148438 C 134.738281 142.25 134.238281 142.402344 133.75 142.605469 C 133.265625 142.804688 132.800781 143.054688 132.363281 143.347656 C 131.925781 143.640625 131.519531 143.972656 131.148438 144.34375 C 130.773438 144.714844 130.441406 145.121094 130.148438 145.558594 C 129.855469 145.996094 129.609375 146.460938 129.410156 146.945312 C 129.207031 147.433594 129.054688 147.933594 128.953125 148.453125 C 128.847656 148.96875 128.796875 149.492188 128.796875 150.019531 L 128.796875 196.875 C 128.796875 197.402344 128.847656 197.925781 128.953125 198.441406 C 129.054688 198.957031 129.207031 199.460938 129.410156 199.945312 C 129.609375 200.433594 129.855469 200.894531 130.148438 201.335938 C 130.441406 201.773438 130.773438 202.175781 131.148438 202.550781 C 131.519531 202.921875 131.925781 203.253906 132.363281 203.546875 C 132.800781 203.839844 133.265625 204.085938 133.75 204.289062 C 134.238281 204.492188 134.738281 204.644531 135.257812 204.746094 C 135.773438 204.847656 136.292969 204.898438 136.820312 204.898438 L 194.804688 204.898438 L 194.804688 262.886719 C 194.804688 263.410156 194.859375 263.933594 194.960938 264.449219 C 195.0625 264.96875 195.214844 265.46875 195.417969 265.957031 C 195.617188 266.441406 195.867188 266.90625 196.160156 267.34375 C 196.453125 267.78125 196.785156 268.1875 197.15625 268.558594 C 197.527344 268.929688 197.933594 269.265625 198.371094 269.554688 C 198.808594 269.847656 199.273438 270.097656 199.757812 270.296875 C 200.246094 270.5 200.746094 270.652344 201.265625 270.753906 C 201.78125 270.855469 202.304688 270.910156 202.832031 270.910156 L 249.6875 270.910156 C 250.214844 270.910156 250.738281 270.855469 251.253906 270.753906 C 251.769531 270.652344 252.273438 270.5 252.757812 270.296875 C 253.246094 270.097656 253.707031 269.847656 254.148438 269.554688 C 254.585938 269.265625 254.988281 268.929688 255.363281 268.558594 C 255.734375 268.1875 256.066406 267.78125 256.359375 267.34375 C 256.652344 266.90625 256.898438 266.441406 257.101562 265.957031 C 257.304688 265.46875 257.457031 264.96875 257.558594 264.449219 C 257.660156 263.933594 257.710938 263.410156 257.710938 262.886719 L 257.710938 204.898438 L 315.699219 204.898438 C 316.222656 204.898438 316.746094 204.847656 317.261719 204.746094 C 317.78125 204.644531 318.28125 204.492188 318.769531 204.289062 C 319.253906 204.085938 319.71875 203.839844 320.15625 203.546875 C 320.59375 203.253906 321 202.921875 321.371094 202.550781 C 321.742188 202.175781 322.078125 201.773438 322.367188 201.335938 C 322.660156 200.894531 322.910156 200.433594 323.109375 199.945312 C 323.3125 199.460938 323.464844 198.957031 323.566406 198.441406 C 323.667969 197.925781 323.722656 197.402344 323.722656 196.875 L 323.722656 150.019531 C 323.722656 149.492188 323.667969 148.96875 323.566406 148.453125 C 323.464844 147.933594 323.3125 147.433594 323.109375 146.945312 C 322.910156 146.460938 322.660156 145.996094 322.367188 145.558594 C 322.078125 145.121094 321.742188 144.714844 321.371094 144.34375 C 321 143.972656 320.59375 143.640625 320.15625 143.347656 C 319.71875 143.054688 319.253906 142.804688 318.769531 142.605469 C 318.28125 142.402344 317.78125 142.25 317.261719 142.148438 C 316.746094 142.046875 316.222656 141.992188 315.699219 141.992188 Z M 315.699219 141.992188 " fill-opacity="1" fill-rule="nonzero"/></g><g fill="#83a603" fill-opacity="1"><g transform="translate(20.309082, 328.463716)"><g><path d="M 3.738281 0.0390625 C 3.117188 -0.507812 3.855469 -1.558594 3.933594 -2.257812 C 4.011719 -3 3.738281 -3.699219 3.738281 -4.476562 C 3.738281 -5.722656 3.777344 -6.96875 3.777344 -8.179688 C 3.738281 -10.632812 3.699219 -13.125 3.699219 -15.578125 L 3.699219 -17.523438 C 3.699219 -19.742188 3.660156 -21.925781 3.660156 -24.144531 C 3.621094 -25.195312 3.347656 -26.441406 4.324219 -27.140625 C 5.683594 -28.15625 8.140625 -27.296875 9.695312 -27.296875 C 16.707031 -27.296875 23.753906 -27.726562 30.765625 -27.140625 C 36.058594 -26.714844 41.746094 -25.429688 46.105469 -22.273438 C 46.652344 -21.847656 47.238281 -21.535156 47.703125 -21.066406 C 50.742188 -18.109375 51.480469 -13.085938 49.417969 -9.347656 C 47.351562 -5.570312 43.1875 -3.230469 39.214844 -1.90625 C 38.589844 -1.714844 37.929688 -1.558594 37.304688 -1.402344 C 36.644531 -1.207031 36.019531 -1.128906 35.359375 -1.011719 C 25.546875 1.050781 15.03125 -0.585938 5.0625 0.273438 C 4.75 0.273438 4.402344 0.3125 4.089844 0.195312 C 3.933594 0.15625 3.855469 0.078125 3.738281 0.0390625 Z M 11.019531 -5.101562 C 11.292969 -4.828125 11.800781 -4.828125 12.1875 -4.867188 C 20.640625 -5.492188 29.441406 -4.011719 37.578125 -7.125 C 41.082031 -8.449219 44.433594 -11.957031 42.992188 -15.964844 C 42.796875 -16.589844 42.445312 -17.132812 42.019531 -17.640625 C 40.734375 -19.199219 39.058594 -20.132812 37.152344 -20.757812 C 31.542969 -22.585938 25 -22.234375 19.199219 -22.234375 L 12.304688 -22.234375 C 10.320312 -22.234375 11.097656 -21.613281 11.097656 -20.25 C 11.097656 -19.316406 10.941406 -19.316406 10.941406 -18.378906 C 10.941406 -17.40625 11.019531 -17.40625 11.019531 -16.472656 C 11.019531 -15.539062 11.019531 -15.539062 11.019531 -14.5625 L 11.019531 -7.710938 C 11.019531 -7.046875 10.515625 -5.648438 10.980469 -5.140625 C 10.980469 -5.101562 11.019531 -5.101562 11.019531 -5.101562 Z M 11.019531 -5.101562 "/></g></g></g><g fill="#83a603" fill-opacity="1"><g transform="translate(73.114266, 328.463716)"><g><path d="M 1.285156 -13.589844 C 1.167969 -15.539062 1.636719 -17.5625 2.960938 -19.550781 C 6.230469 -24.378906 12.382812 -26.480469 17.914062 -27.570312 C 23.949219 -28.777344 30.257812 -28.660156 36.175781 -27.335938 C 41.277344 -26.207031 46.339844 -24.027344 49.613281 -20.054688 C 52.84375 -16.199219 53.039062 -11.058594 49.921875 -7.125 C 48.289062 -5.023438 45.953125 -3.503906 43.574219 -2.296875 C 38.589844 0.117188 33.023438 1.089844 27.414062 1.285156 C 22.78125 1.441406 18.109375 1.089844 13.707031 -0.351562 C 8.023438 -2.21875 1.714844 -7.59375 1.285156 -13.589844 Z M 8.566406 -13.550781 C 8.722656 -10.125 11.878906 -7.007812 15.304688 -5.648438 C 21.613281 -3.117188 29.324219 -2.453125 35.828125 -4.710938 C 41.238281 -6.621094 48.132812 -13.007812 42.484375 -18.535156 C 41.199219 -19.78125 39.566406 -20.640625 37.929688 -21.339844 C 30.84375 -24.222656 22.664062 -24.066406 15.539062 -21.417969 C 13.511719 -20.679688 11.527344 -19.664062 10.203125 -18.03125 C 8.957031 -16.550781 8.527344 -15.03125 8.566406 -13.550781 Z M 8.566406 -13.550781 "/></g></g></g><g fill="#83a603" fill-opacity="1"><g transform="translate(127.516069, 328.463716)"><g><path d="M 42.71875 -18.925781 C 43.03125 -19.042969 43.226562 -19.394531 43.1875 -20.210938 C 43.148438 -21.613281 43.070312 -22.976562 43.03125 -24.378906 C 43.03125 -24.6875 42.992188 -25 42.875 -25.273438 C 42.601562 -25.78125 41.511719 -26.011719 41.042969 -26.167969 C 40.421875 -26.402344 39.757812 -26.558594 39.097656 -26.753906 C 38.476562 -26.949219 37.8125 -27.027344 37.152344 -27.21875 C 35.164062 -27.6875 33.21875 -28.078125 31.191406 -28.234375 C 30.53125 -28.3125 29.867188 -28.273438 29.167969 -28.3125 C 28.503906 -28.351562 27.84375 -28.464844 27.140625 -28.464844 C 26.480469 -28.464844 25.820312 -28.386719 25.15625 -28.351562 C 19.898438 -28.117188 14.371094 -27.066406 9.734375 -24.496094 C 8.023438 -23.558594 6.347656 -22.195312 5.023438 -20.796875 C 4.554688 -20.289062 4.167969 -19.742188 3.777344 -19.238281 C 2.335938 -17.09375 1.480469 -14.253906 2.0625 -11.605469 C 2.21875 -10.980469 2.492188 -10.359375 2.765625 -9.734375 C 5.023438 -4.671875 10.28125 -2.0625 15.304688 -0.507812 C 15.925781 -0.3125 16.550781 -0.117188 17.210938 0.0390625 C 17.875 0.195312 18.535156 0.3125 19.199219 0.429688 C 23.171875 1.207031 27.140625 1.363281 31.191406 1.011719 C 31.855469 0.933594 32.554688 0.972656 33.21875 0.894531 C 35.046875 0.625 36.839844 0.195312 38.589844 -0.351562 C 39.605469 -0.660156 42.175781 -1.050781 42.757812 -1.984375 C 42.875 -2.140625 42.914062 -2.335938 42.914062 -2.53125 C 43.03125 -4.4375 43.34375 -6.699219 42.992188 -8.566406 C 42.367188 -8.410156 41.824219 -7.789062 41.238281 -7.398438 C 40.695312 -7.007812 40.148438 -6.582031 39.488281 -6.269531 C 35.242188 -4.050781 30.296875 -3.269531 25.546875 -3.542969 C 20.25 -3.855469 13.863281 -5.257812 10.59375 -9.851562 C 8.878906 -12.226562 8.839844 -15.03125 10.554688 -17.40625 C 15.304688 -24.105469 26.285156 -24.496094 33.488281 -23.054688 C 35.554688 -22.625 37.65625 -21.964844 39.488281 -20.988281 C 40.109375 -20.640625 41.863281 -18.730469 42.71875 -18.925781 Z M 42.71875 -18.925781 "/></g></g></g><g fill="#83a603" fill-opacity="1"><g transform="translate(172.377114, 328.463716)"><g><path d="M 2.921875 0 C 2.53125 -0.46875 3.039062 -1.441406 3.039062 -1.945312 L 3.039062 -3.894531 C 3.039062 -9.308594 3 -14.679688 2.960938 -20.09375 L 2.960938 -24.300781 C 2.960938 -24.921875 2.960938 -25.507812 2.84375 -26.089844 C 2.570312 -27.335938 3.230469 -27.570312 4.402344 -27.375 C 6.074219 -27.105469 7.710938 -27.21875 9.425781 -27.296875 C 9.734375 -27.296875 10.046875 -27.335938 10.320312 -27.179688 C 10.902344 -26.949219 11.214844 -26.207031 11.644531 -25.78125 C 12.070312 -25.3125 12.539062 -24.882812 12.96875 -24.457031 C 15.847656 -21.417969 18.730469 -18.339844 21.574219 -15.304688 C 24.300781 -12.382812 26.949219 -9.308594 29.867188 -6.582031 C 30.21875 -6.269531 30.570312 -5.957031 30.804688 -5.570312 C 31.035156 -5.179688 31.191406 -4.671875 31.621094 -4.476562 C 32.515625 -4.050781 32.828125 -5.375 33.257812 -5.839844 C 34.96875 -7.632812 36.800781 -9.269531 38.511719 -11.019531 C 40.03125 -12.578125 41.316406 -14.292969 42.796875 -15.847656 C 43.5 -16.550781 43.613281 -16.472656 44.277344 -17.171875 C 44.9375 -17.875 44.859375 -17.992188 45.523438 -18.730469 C 46.222656 -19.433594 46.183594 -19.472656 46.847656 -20.171875 C 47.546875 -20.871094 47.703125 -20.757812 48.367188 -21.457031 C 49.027344 -22.195312 48.949219 -22.273438 49.652344 -22.976562 C 50.3125 -23.675781 50.273438 -23.753906 50.9375 -24.457031 L 51.988281 -25.351562 C 52.453125 -25.742188 52.6875 -26.246094 53.117188 -26.675781 C 53.933594 -27.53125 54.90625 -27.257812 56 -27.21875 C 57.246094 -27.140625 58.53125 -27.21875 59.777344 -27.414062 C 59.96875 -27.414062 60.164062 -27.453125 60.398438 -27.453125 C 61.722656 -27.296875 60.828125 -26.011719 60.828125 -25.3125 C 60.828125 -24.339844 60.867188 -24.339844 60.867188 -23.363281 C 60.867188 -22.390625 61.0625 -22.390625 61.0625 -21.417969 C 61.0625 -15.34375 60.90625 -9.230469 60.90625 -3.152344 C 60.867188 -2.609375 60.867188 -2.0625 60.945312 -1.558594 C 61.023438 -1.011719 61.371094 -0.234375 60.789062 0.15625 C 60.359375 0.390625 60.046875 0.078125 59.660156 0 C 59.230469 -0.117188 58.722656 -0.0390625 58.296875 0 C 57.476562 0.078125 56.699219 -0.117188 55.921875 -0.117188 C 55.21875 -0.117188 53.777344 0.699219 53.546875 -0.46875 C 53.46875 -1.050781 53.738281 -1.753906 53.777344 -2.296875 C 53.855469 -3.117188 53.816406 -3.933594 53.777344 -4.75 C 53.546875 -8.644531 53.699219 -12.578125 53.699219 -16.433594 C 53.699219 -16.941406 54.089844 -17.328125 54.128906 -17.835938 C 54.167969 -18.265625 53.777344 -18.964844 53.234375 -18.574219 C 53.117188 -18.457031 53.039062 -18.339844 53 -18.1875 C 51.675781 -15.65625 49.027344 -13.628906 47.042969 -11.566406 C 44.746094 -9.191406 42.523438 -6.660156 40.226562 -4.246094 C 39.488281 -3.464844 38.707031 -2.765625 38.007812 -1.984375 C 37.5 -1.441406 37.113281 -0.660156 36.488281 -0.195312 C 35.789062 0.3125 35.164062 0.0390625 34.386719 0 C 32.710938 -0.15625 31.035156 0.0390625 29.363281 0.117188 C 28.933594 0.15625 28.503906 0.15625 28.117188 0.0390625 C 27.027344 -0.234375 26.363281 -1.363281 25.664062 -2.140625 C 23.015625 -4.984375 20.328125 -7.828125 17.601562 -10.671875 C 16.355469 -11.992188 15.070312 -13.316406 13.824219 -14.679688 C 12.8125 -15.808594 11.449219 -16.746094 10.902344 -18.1875 C 10.824219 -18.378906 10.746094 -18.613281 10.554688 -18.691406 C 9.269531 -19.277344 10.046875 -16.863281 10.085938 -16.511719 C 10.398438 -13.902344 10.203125 -11.253906 10.125 -8.605469 C 10.085938 -7.4375 10.085938 -6.308594 10.164062 -5.140625 C 10.203125 -3.894531 9.890625 -2.648438 10.203125 -1.402344 C 10.515625 -0.117188 10.125 0.429688 8.761719 0.15625 C 7.945312 -0.0390625 7.125 0.078125 6.308594 0 C 5.53125 -0.078125 4.828125 -0.15625 4.089844 0.078125 C 3.894531 0.15625 3.699219 0.234375 3.503906 0.234375 C 3.230469 0.195312 3.039062 0.117188 2.921875 0 Z M 2.921875 0 "/></g></g></g><g fill="#83a603" fill-opacity="1"><g transform="translate(236.241804, 328.463716)"><g><path d="M 3.894531 0 C 3.777344 -0.195312 3.738281 -0.429688 3.699219 -0.625 C 3.464844 -2.140625 3.894531 -3.582031 3.894531 -5.101562 C 3.933594 -7.398438 3.933594 -9.695312 3.933594 -12.03125 C 3.933594 -15.34375 3.933594 -18.652344 3.894531 -21.964844 C 3.894531 -23.363281 2.921875 -27.335938 4.945312 -27.335938 L 42.214844 -27.21875 C 42.71875 -27.21875 43.265625 -27.179688 43.574219 -26.792969 C 43.769531 -26.519531 43.808594 -26.167969 43.808594 -25.820312 L 43.925781 -23.054688 C 43.925781 -22.585938 43.925781 -22.042969 43.535156 -21.730469 C 42.835938 -21.144531 41.746094 -21.378906 40.929688 -21.457031 C 39.796875 -21.535156 38.628906 -21.496094 37.460938 -21.496094 C 34.695312 -21.535156 31.894531 -21.535156 29.128906 -21.574219 C 23.597656 -21.613281 18.109375 -21.613281 12.617188 -21.652344 C 10.203125 -21.652344 10.902344 -19.082031 10.863281 -17.25 C 10.824219 -16.667969 11.097656 -15.964844 11.683594 -15.847656 C 12.539062 -15.65625 14.214844 -16.003906 15.226562 -16.003906 C 20.367188 -16.003906 25.507812 -16.042969 30.648438 -16.042969 C 33.21875 -16.082031 35.789062 -16.082031 38.359375 -16.121094 C 39.835938 -16.121094 44.160156 -17.09375 43.886719 -14.601562 L 43.535156 -11.371094 C 43.535156 -11.175781 43.5 -10.980469 43.382812 -10.863281 C 43.226562 -10.710938 42.992188 -10.710938 42.796875 -10.710938 C 33.605469 -10.671875 24.378906 -10.671875 15.226562 -10.671875 C 14.292969 -10.671875 13.511719 -10.632812 12.617188 -10.902344 C 12.03125 -11.058594 11.292969 -11.097656 10.980469 -10.59375 C 10.515625 -9.734375 10.746094 -8.527344 10.863281 -7.632812 C 10.980469 -6.621094 10.863281 -5.609375 12.148438 -5.609375 C 22.195312 -5.648438 32.242188 -5.683594 42.289062 -5.761719 C 44.277344 -5.761719 43.808594 -5.023438 43.808594 -3.582031 C 43.769531 -2.648438 44.433594 -1.128906 43.886719 -0.273438 C 43.304688 0.738281 42.523438 -0.0390625 41.667969 -0.0390625 C 40.695312 -0.0390625 40.695312 -0.078125 39.683594 -0.078125 C 28.855469 -0.078125 18.03125 0.195312 7.203125 -0.0390625 C 6.660156 -0.078125 6.074219 -0.078125 5.53125 0.078125 C 5.023438 0.195312 4.363281 0.46875 3.972656 0.078125 Z M 3.894531 0 "/></g></g></g><g fill="#83a603" fill-opacity="1"><g transform="translate(283.789836, 328.463716)"><g><path d="M 3.894531 0 C 3.777344 -0.195312 3.738281 -0.429688 3.699219 -0.625 C 3.464844 -2.140625 3.894531 -3.582031 3.894531 -5.101562 C 3.933594 -7.398438 3.933594 -9.695312 3.933594 -12.03125 C 3.933594 -15.34375 3.933594 -18.652344 3.894531 -21.964844 C 3.894531 -23.363281 2.921875 -27.335938 4.945312 -27.335938 L 42.214844 -27.21875 C 42.71875 -27.21875 43.265625 -27.179688 43.574219 -26.792969 C 43.769531 -26.519531 43.808594 -26.167969 43.808594 -25.820312 L 43.925781 -23.054688 C 43.925781 -22.585938 43.925781 -22.042969 43.535156 -21.730469 C 42.835938 -21.144531 41.746094 -21.378906 40.929688 -21.457031 C 39.796875 -21.535156 38.628906 -21.496094 37.460938 -21.496094 C 34.695312 -21.535156 31.894531 -21.535156 29.128906 -21.574219 C 23.597656 -21.613281 18.109375 -21.613281 12.617188 -21.652344 C 10.203125 -21.652344 10.902344 -19.082031 10.863281 -17.25 C 10.824219 -16.667969 11.097656 -15.964844 11.683594 -15.847656 C 12.539062 -15.65625 14.214844 -16.003906 15.226562 -16.003906 C 20.367188 -16.003906 25.507812 -16.042969 30.648438 -16.042969 C 33.21875 -16.082031 35.789062 -16.082031 38.359375 -16.121094 C 39.835938 -16.121094 44.160156 -17.09375 43.886719 -14.601562 L 43.535156 -11.371094 C 43.535156 -11.175781 43.5 -10.980469 43.382812 -10.863281 C 43.226562 -10.710938 42.992188 -10.710938 42.796875 -10.710938 C 33.605469 -10.671875 24.378906 -10.671875 15.226562 -10.671875 C 14.292969 -10.671875 13.511719 -10.632812 12.617188 -10.902344 C 12.03125 -11.058594 11.292969 -11.097656 10.980469 -10.59375 C 10.515625 -9.734375 10.746094 -8.527344 10.863281 -7.632812 C 10.980469 -6.621094 10.863281 -5.609375 12.148438 -5.609375 C 22.195312 -5.648438 32.242188 -5.683594 42.289062 -5.761719 C 44.277344 -5.761719 43.808594 -5.023438 43.808594 -3.582031 C 43.769531 -2.648438 44.433594 -1.128906 43.886719 -0.273438 C 43.304688 0.738281 42.523438 -0.0390625 41.667969 -0.0390625 C 40.695312 -0.0390625 40.695312 -0.078125 39.683594 -0.078125 C 28.855469 -0.078125 18.03125 0.195312 7.203125 -0.0390625 C 6.660156 -0.078125 6.074219 -0.078125 5.53125 0.078125 C 5.023438 0.195312 4.363281 0.46875 3.972656 0.078125 Z M 3.894531 0 "/></g></g></g><g fill="#83a603" fill-opacity="1"><g transform="translate(331.337853, 328.463716)"><g><path d="M 2.21875 -21.847656 C 2.609375 -21.496094 3.230469 -21.457031 3.777344 -21.457031 C 8.023438 -21.535156 12.226562 -21.613281 16.433594 -21.652344 C 16.707031 -21.652344 16.941406 -21.652344 17.171875 -21.574219 C 17.757812 -21.261719 17.835938 -20.484375 17.835938 -19.859375 C 17.679688 -13.863281 17.5625 -7.90625 17.445312 -1.90625 C 17.445312 -1.519531 17.445312 -1.089844 17.601562 -0.738281 C 17.992188 -0.117188 18.847656 0.0390625 19.585938 0.0390625 C 21.144531 0.117188 22.703125 0.078125 24.261719 -0.117188 C 24.457031 -0.117188 24.648438 -0.15625 24.765625 -0.273438 C 24.921875 -0.429688 24.921875 -0.660156 24.921875 -0.855469 C 24.84375 -7.164062 24.765625 -13.472656 24.726562 -19.78125 C 24.726562 -20.25 24.726562 -20.757812 25 -21.105469 C 25.390625 -21.652344 26.167969 -21.691406 26.832031 -21.691406 C 31.503906 -21.613281 36.136719 -21.574219 40.8125 -21.496094 C 41.042969 -21.496094 41.355469 -21.496094 41.550781 -21.691406 C 41.785156 -21.886719 41.785156 -22.234375 41.785156 -22.546875 L 41.785156 -26.597656 C 41.785156 -26.792969 41.785156 -26.949219 41.667969 -27.066406 C 41.511719 -27.21875 41.316406 -27.21875 41.160156 -27.21875 C 28.386719 -27.257812 15.65625 -27.296875 2.921875 -27.296875 C 2.648438 -27.296875 2.375 -27.296875 2.179688 -27.105469 C 2.0625 -26.949219 2.023438 -26.714844 2.023438 -26.519531 C 1.984375 -25.351562 1.945312 -24.183594 1.871094 -23.015625 C 1.871094 -22.742188 1.871094 -22.429688 1.984375 -22.15625 C 2.0625 -22.042969 2.101562 -21.925781 2.21875 -21.847656 Z M 2.21875 -21.847656 "/></g></g></g></svg>